<svg width="86" height="70" viewBox="0 0 86 70" fill="none" xmlns="http://www.w3.org/2000/svg">
<path fill-rule="evenodd" clip-rule="evenodd" d="M47.4234 65.2393C48.2977 31.6187 54.394 11.4173 54.394 11.4173C59.3461 -4.31108 67.6477 11.7054 67.6477 11.7054C77.2975 28.6242 76.9696 70 76.9696 70H86C86 70 84.1071 34.9369 74.6392 14.1586C74.6392 14.1586 67.6236 -0.583428 60.3653 0.0179088C60.3653 0.0179088 48.968 -1.17572 43 31.2545C37.032 -1.17572 25.6347 0.0179088 25.6347 0.0179088C18.3764 -0.583428 11.3608 14.1586 11.3608 14.1586C1.89346 34.9369 0 70 0 70H9.03043C9.03043 70 8.70305 28.6242 18.3523 11.7054C18.3523 11.7054 26.6544 -4.31108 31.607 11.4173C31.607 11.4173 37.7034 31.6187 38.5776 65.2393H47.4234Z" fill="#FFC72C"/>
</svg>
